<svg width="130" height="22" viewBox="0 0 130 22" fill="none" xmlns="http://www.w3.org/2000/svg">
<g clip-path="url(#clip0_1016_23970)">
<path d="M26.2048 0H33.7483C36.7856 0 38.8667 1.88833 38.8667 4.48752C38.8667 6.44924 37.7395 7.89505 36.0013 8.45914C37.8623 8.80198 39.2337 10.2982 39.2337 12.5786C39.2337 15.2271 36.9565 17.1636 33.9925 17.1636H26.2048V0ZM33.3068 7.18418C34.9718 7.18418 35.9268 6.35066 35.9268 4.90374C35.9268 3.45682 34.9718 2.62329 33.3068 2.62329H29.1677V7.18418H33.3068ZM33.5029 14.5403C35.2664 14.5403 36.2948 13.6827 36.2948 12.1372C36.2948 10.5917 35.2664 9.73409 33.5029 9.73409H29.1687V14.5403H33.5029Z" fill="#171721"></path>
<path d="M48.2475 17.1633C48.1982 16.8939 48.15 16.4272 48.1007 15.7417V15.4721C47.4392 16.5751 46.0185 17.4087 44.3537 17.4087C42.0765 17.4087 40.3372 15.9376 40.3372 13.804C40.3372 11.2782 42.2473 10.0525 44.794 9.85646L48.0021 9.58702V9.24419C48.0021 7.87066 47.1445 6.96373 45.7984 6.96373H45.6023C44.403 6.96373 43.496 7.65049 43.3985 8.60671H40.5584C40.7544 6.30216 42.8114 4.65918 45.7009 4.65918C48.8105 4.65918 50.77 6.47303 50.77 9.1708V14.4667C50.77 15.6924 50.8193 16.6004 50.8927 17.1633H48.2475ZM48.0032 11.6955L45.1871 11.9409C44.012 12.0635 43.1061 12.6276 43.1061 13.6331C43.1061 14.4908 43.841 15.1042 44.8454 15.1042H45.0163C46.5103 15.1042 48.0043 13.9026 48.0043 12.4064V11.6955H48.0032Z" fill="#171721"></path>
<path d="M58.0638 4.6582C61.0759 4.6582 63.1089 6.25188 63.3531 9.09643H60.537C60.3169 7.79738 59.4592 6.96275 58.1613 6.96275H57.9412C55.9576 6.96275 55.0024 8.80179 55.0024 11.033C55.0024 13.2641 55.9576 15.1031 57.9412 15.1031H58.1613C59.4592 15.1031 60.3158 14.2696 60.537 12.9694H63.3531C63.1089 15.814 61.0759 17.4077 58.0638 17.4077C54.562 17.4077 52.1863 14.7845 52.1863 11.033C52.1863 7.28149 54.562 4.6582 58.0638 4.6582Z" fill="#171721"></path>
<path d="M69.2251 11.7692L67.6818 13.3136V17.1625H64.8417V0H67.6818V9.80747L72.5066 4.90374H76.0335L71.1847 9.78338L76.303 17.1636H72.924L69.2262 11.7692H69.2251Z" fill="#171721"></path>
<path d="M78.6983 13.2158C78.7716 14.4174 79.7027 15.1523 81.0488 15.1523H81.2448C82.3961 15.1523 83.1551 14.6123 83.1551 13.804C83.1551 13.0932 82.7137 12.6265 81.7104 12.4315L80.0444 12.0635C77.6193 11.4995 76.3467 10.3965 76.3467 8.43475C76.3467 6.15429 78.3554 4.65918 81.1463 4.65918C84.3052 4.65918 86.0938 6.30216 86.0938 8.85206H83.2537C83.1551 7.65049 82.4454 6.91554 81.1967 6.91554H81.0006C79.9229 6.91554 79.1638 7.45553 79.1638 8.26387C79.1638 8.95064 79.7027 9.41615 80.7805 9.63741L82.568 10.0536C84.797 10.5684 85.9723 11.6966 85.9723 13.6824C85.9723 15.815 84.062 17.4098 81.0247 17.4098C77.7432 17.4098 75.9064 15.7668 75.8571 13.2169H78.6983V13.2158Z" fill="#171721"></path>
<path d="M89.1797 7.23301H86.5837V4.90326H89.1797V0.931641H91.9957V4.90326H94.8359V7.23301H91.9957V13.5344C91.9957 14.5146 92.2159 14.736 93.1951 14.736H95.2039V17.1631H92.1677C90.2334 17.1631 89.1797 16.1336 89.1797 14.1719V7.23301Z" fill="#171721"></path>
<path d="M101.398 4.6582C104.9 4.6582 107.422 7.35487 107.422 11.033C107.422 14.711 104.9 17.4077 101.398 17.4077C97.8962 17.4077 95.3977 14.711 95.3977 11.033C95.3977 7.35487 97.9202 4.6582 101.398 4.6582ZM101.521 15.1043C103.332 15.1043 104.606 13.5599 104.606 11.034C104.606 8.50824 103.332 6.96384 101.521 6.96384H101.3C99.4877 6.96384 98.2149 8.50824 98.2149 11.034C98.2149 13.5599 99.4888 15.1043 101.3 15.1043H101.521Z" fill="#171721"></path>
<path d="M108.834 4.90393H111.602V7.45382C112.091 5.78676 113.413 4.78125 115.153 4.78125H115.986V7.42973H114.933C112.778 7.42973 111.675 8.6072 111.675 10.8625V17.1638H108.834V4.90393Z" fill="#171721"></path>
<path d="M126.988 4.82825L123.883 12.8416L123.607 13.547L119.582 4.96517H116.524L122.224 17.0991L121.75 18.3411C121.615 18.6971 121.462 18.9337 121.288 19.0521C121.121 19.1781 120.828 19.2415 120.41 19.2415H117.791V21.695H121.074C121.896 21.695 122.524 21.5527 122.959 21.2678C123.401 20.9831 123.773 20.4781 124.073 19.7509L130 4.82715H126.989L126.988 4.82825Z" fill="#171721"></path>
<path d="M9.88853 1.38983L6.72963 0.0371094L0 15.8031L3.1589 17.1558L9.88853 1.38983Z" fill="#171721"></path>
<path d="M21.6239 0.0078125H18.189V17.1551H21.6239V0.0078125Z" fill="#171721"></path>
<path d="M17.4733 0.0078125H14.0385V17.1551H17.4733V0.0078125Z" fill="#171721"></path>
<path d="M13.322 0.0078125H9.88708V17.1551H13.322V0.0078125Z" fill="#171721"></path>
</g>
<defs>
<clipPath id="clip0_1016_23970">
<rect width="130" height="21.6949" fill="white"></rect>
</clipPath>
</defs>
</svg>